<mxfile host="65bd71144e">
    <diagram id="BSrJ891Hfc8_6KQQKPbp" name="Page-1">
        <mxGraphModel dx="842" dy="617" grid="1" gridSize="10" guides="1" tooltips="1" connect="1" arrows="1" fold="1" page="1" pageScale="1" pageWidth="827" pageHeight="1169" math="0" shadow="0">
            <root>
                <mxCell id="0"/>
                <mxCell id="1" parent="0"/>
                <mxCell id="2" value="Tableau de bord&amp;nbsp;" style="html=1;" vertex="1" parent="1">
                    <mxGeometry x="350" y="10" width="110" height="50" as="geometry"/>
                </mxCell>
                <mxCell id="3" value="Elève" style="shape=umlActor;verticalLabelPosition=bottom;verticalAlign=top;html=1;" vertex="1" parent="1">
                    <mxGeometry x="40" y="280" width="30" height="60" as="geometry"/>
                </mxCell>
                <mxCell id="4" value="Bénévole" style="shape=umlActor;verticalLabelPosition=bottom;verticalAlign=top;html=1;" vertex="1" parent="1">
                    <mxGeometry x="40" y="720" width="30" height="60" as="geometry"/>
                </mxCell>
                <mxCell id="6" value="" style="endArrow=open;endFill=1;endSize=12;html=1;" edge="1" parent="1">
                    <mxGeometry width="160" relative="1" as="geometry">
                        <mxPoint x="54.5" y="360" as="sourcePoint"/>
                        <mxPoint x="54.5" y="720" as="targetPoint"/>
                    </mxGeometry>
                </mxCell>
                <mxCell id="7" value="Tchat" style="ellipse;whiteSpace=wrap;html=1;fillColor=#008a00;fontColor=#ffffff;strokeColor=#005700;" vertex="1" parent="1">
                    <mxGeometry x="240" y="180" width="140" height="70" as="geometry"/>
                </mxCell>
                <mxCell id="8" value="Calendrier" style="ellipse;whiteSpace=wrap;html=1;fillColor=#008a00;fontColor=#ffffff;strokeColor=#005700;" vertex="1" parent="1">
                    <mxGeometry x="240" y="460" width="140" height="70" as="geometry"/>
                </mxCell>
                <mxCell id="9" value="se déconnecter" style="ellipse;whiteSpace=wrap;html=1;fillColor=#008a00;fontColor=#ffffff;strokeColor=#005700;" vertex="1" parent="1">
                    <mxGeometry x="240" y="730" width="140" height="70" as="geometry"/>
                </mxCell>
                <mxCell id="10" value="" style="endArrow=open;endFill=1;endSize=12;html=1;entryX=0;entryY=0.5;entryDx=0;entryDy=0;" edge="1" parent="1" target="7">
                    <mxGeometry width="160" relative="1" as="geometry">
                        <mxPoint x="50" y="460" as="sourcePoint"/>
                        <mxPoint x="490" y="410" as="targetPoint"/>
                        <Array as="points">
                            <mxPoint x="160" y="460"/>
                            <mxPoint x="160" y="215"/>
                        </Array>
                    </mxGeometry>
                </mxCell>
                <mxCell id="11" value="" style="endArrow=open;endFill=1;endSize=12;html=1;" edge="1" parent="1">
                    <mxGeometry width="160" relative="1" as="geometry">
                        <mxPoint x="50" y="495" as="sourcePoint"/>
                        <mxPoint x="240" y="494.5" as="targetPoint"/>
                    </mxGeometry>
                </mxCell>
                <mxCell id="12" value="" style="endArrow=open;endFill=1;endSize=12;html=1;entryX=0;entryY=0.5;entryDx=0;entryDy=0;" edge="1" parent="1" target="9">
                    <mxGeometry width="160" relative="1" as="geometry">
                        <mxPoint x="50" y="540" as="sourcePoint"/>
                        <mxPoint x="490" y="660" as="targetPoint"/>
                        <Array as="points">
                            <mxPoint x="160" y="540"/>
                            <mxPoint x="160" y="765"/>
                        </Array>
                    </mxGeometry>
                </mxCell>
                <mxCell id="13" value="consulter messages non lu" style="ellipse;whiteSpace=wrap;html=1;fillColor=#0050ef;fontColor=#ffffff;strokeColor=#001DBC;" vertex="1" parent="1">
                    <mxGeometry x="550" y="180" width="140" height="70" as="geometry"/>
                </mxCell>
                <mxCell id="20" value="consulter taches et rendez vous" style="ellipse;whiteSpace=wrap;html=1;fillColor=#0050ef;fontColor=#ffffff;strokeColor=#001DBC;" vertex="1" parent="1">
                    <mxGeometry x="480" y="320" width="140" height="70" as="geometry"/>
                </mxCell>
                <mxCell id="21" value="créer&amp;nbsp; ou supprimer des taches" style="ellipse;whiteSpace=wrap;html=1;fillColor=#0050ef;fontColor=#ffffff;strokeColor=#001DBC;" vertex="1" parent="1">
                    <mxGeometry x="540" y="460" width="140" height="70" as="geometry"/>
                </mxCell>
                <mxCell id="22" value="ajouter ou supprimer un&amp;nbsp; évènement" style="ellipse;whiteSpace=wrap;html=1;fillColor=#0050ef;fontColor=#ffffff;strokeColor=#001DBC;" vertex="1" parent="1">
                    <mxGeometry x="480" y="660" width="140" height="70" as="geometry"/>
                </mxCell>
                <mxCell id="23" value="include" style="endArrow=open;endSize=12;dashed=1;html=1;exitX=0.5;exitY=0;exitDx=0;exitDy=0;entryX=0;entryY=0.5;entryDx=0;entryDy=0;" edge="1" parent="1" source="8" target="20">
                    <mxGeometry x="-0.0256" y="15" width="160" relative="1" as="geometry">
                        <mxPoint x="360" y="460" as="sourcePoint"/>
                        <mxPoint x="520" y="460" as="targetPoint"/>
                        <Array as="points">
                            <mxPoint x="310" y="435"/>
                            <mxPoint x="310" y="355"/>
                        </Array>
                        <mxPoint as="offset"/>
                    </mxGeometry>
                </mxCell>
                <mxCell id="24" value="include" style="endArrow=open;endSize=12;dashed=1;html=1;entryX=0;entryY=0.5;entryDx=0;entryDy=0;" edge="1" parent="1" target="13">
                    <mxGeometry x="-0.0593" y="15" width="160" relative="1" as="geometry">
                        <mxPoint x="380" y="214.5" as="sourcePoint"/>
                        <mxPoint x="540" y="214.5" as="targetPoint"/>
                        <mxPoint as="offset"/>
                    </mxGeometry>
                </mxCell>
                <mxCell id="25" value="include" style="endArrow=open;endSize=12;dashed=1;html=1;entryX=0;entryY=0.5;entryDx=0;entryDy=0;" edge="1" parent="1" target="22">
                    <mxGeometry x="0.4783" y="15" width="160" relative="1" as="geometry">
                        <mxPoint x="300" y="530" as="sourcePoint"/>
                        <mxPoint x="460" y="530" as="targetPoint"/>
                        <Array as="points">
                            <mxPoint x="300" y="695"/>
                        </Array>
                        <mxPoint as="offset"/>
                    </mxGeometry>
                </mxCell>
                <mxCell id="26" value="include" style="endArrow=open;endSize=12;dashed=1;html=1;" edge="1" parent="1">
                    <mxGeometry x="-0.25" y="15" width="160" relative="1" as="geometry">
                        <mxPoint x="380" y="494.5" as="sourcePoint"/>
                        <mxPoint x="540" y="494.5" as="targetPoint"/>
                        <mxPoint y="1" as="offset"/>
                    </mxGeometry>
                </mxCell>
            </root>
        </mxGraphModel>
    </diagram>
</mxfile>